# xmcd CD database file
#
# Track frame offsets:
# 150
# 11377
# 25035
# 36062
# 45652
# 55720
# 67360
# 79327
# 90100
# 99962
#
# Disc length: 1479 seconds
# Revision: 2
# Processed by: cddbd v1.5.2PL0 Copyright (c) Steve Scherf et al.
# Submitted via: MusicBin 0.4
#
DISCID=6c05c50a
DTITLE=Osborne Brothers - Country Bluegrass
DYEAR=1969
DGENRE=Bluegrass
TTITLE0=Roll Muddy River
TTITLE1=Ruby Are You Mad At Your Man
TTITLE2=The Kind Of Woman I Got
TTITLE3=Blue Heartache
TTITLE4=Don't Let Smokey Mountain Smoke Get In Your Eyes
TTITLE5=Rocky Top
TTITLE6=Lizzy Lou
TTITLE7=Up This Hill And Down
TTITLE8=Georgia Pineywoods
TTITLE9=My Old Kentucky Home (Turpentine And Dandelion Wine)
EXTD=
EXTT0=
EXTT1=
EXTT2=
EXTT3=
EXTT4=
EXTT5=
EXTT6=
EXTT7=
EXTT8=
EXTT9=
PLAYORDER=
